<mxfile host="65bd71144e">
    <diagram id="Yuqh3Mnu-jXUH_vZ8k4z" name="Página-1">
        <mxGraphModel dx="981" dy="438" grid="1" gridSize="10" guides="1" tooltips="1" connect="1" arrows="1" fold="1" page="1" pageScale="1" pageWidth="827" pageHeight="1169" math="0" shadow="0">
            <root>
                <mxCell id="0"/>
                <mxCell id="1" parent="0"/>
                <mxCell id="14" style="edgeStyle=none;html=1;entryX=0;entryY=0.5;entryDx=0;entryDy=0;" edge="1" parent="1" source="2" target="5">
                    <mxGeometry relative="1" as="geometry"/>
                </mxCell>
                <mxCell id="2" value="Inicio" style="ellipse;whiteSpace=wrap;html=1;aspect=fixed;align=center;fillColor=#d5e8d4;strokeColor=#82b366;" vertex="1" parent="1">
                    <mxGeometry x="10" y="125" width="80" height="80" as="geometry"/>
                </mxCell>
                <mxCell id="3" value="valorCompra&lt;div&gt;&amp;gt;=&lt;/div&gt;&lt;div&gt;valorMinimoDesconto&lt;/div&gt;" style="rhombus;whiteSpace=wrap;html=1;" vertex="1" parent="1">
                    <mxGeometry x="190" y="120" width="80" height="80" as="geometry"/>
                </mxCell>
                <mxCell id="4" value="valorCompra&lt;div&gt;&amp;gt;=&lt;/div&gt;&lt;div&gt;valorMinimoDesconto&lt;/div&gt;" style="rhombus;whiteSpace=wrap;html=1;" vertex="1" parent="1">
                    <mxGeometry x="190" y="120" width="80" height="80" as="geometry"/>
                </mxCell>
                <mxCell id="10" value="Não" style="edgeStyle=none;html=1;" edge="1" parent="1">
                    <mxGeometry relative="1" as="geometry">
                        <mxPoint x="230" y="185" as="sourcePoint"/>
                        <mxPoint x="365.19230769230785" y="219.4230769230769" as="targetPoint"/>
                        <Array as="points">
                            <mxPoint x="230" y="220"/>
                        </Array>
                    </mxGeometry>
                </mxCell>
                <mxCell id="5" value="valorCompra&lt;div&gt;&amp;gt;=&lt;/div&gt;&lt;div&gt;valorMinimoDesconto&lt;/div&gt;" style="rhombus;whiteSpace=wrap;html=1;fillColor=#f5f5f5;fontColor=#333333;strokeColor=#666666;" vertex="1" parent="1">
                    <mxGeometry x="160" y="90" width="150" height="150" as="geometry"/>
                </mxCell>
                <mxCell id="6" value="Desconto&lt;div&gt;concedido&lt;/div&gt;" style="shape=parallelogram;perimeter=parallelogramPerimeter;whiteSpace=wrap;html=1;fixedSize=1;fillColor=#dae8fc;strokeColor=#6c8ebf;" vertex="1" parent="1">
                    <mxGeometry x="380" y="110" width="120" height="60" as="geometry"/>
                </mxCell>
                <mxCell id="7" value="Desconto&lt;div&gt;negado&lt;/div&gt;" style="shape=parallelogram;perimeter=parallelogramPerimeter;whiteSpace=wrap;html=1;fixedSize=1;fillColor=#dae8fc;strokeColor=#6c8ebf;" vertex="1" parent="1">
                    <mxGeometry x="360" y="190" width="120" height="60" as="geometry"/>
                </mxCell>
                <mxCell id="8" value="fim" style="ellipse;whiteSpace=wrap;html=1;aspect=fixed;fillColor=#ffe6cc;strokeColor=#d79b00;" vertex="1" parent="1">
                    <mxGeometry x="610" y="110" width="80" height="80" as="geometry"/>
                </mxCell>
                <mxCell id="9" value="sim" style="edgeStyle=none;html=1;entryX=0.005;entryY=0.797;entryDx=0;entryDy=0;entryPerimeter=0;" edge="1" parent="1" source="5" target="6">
                    <mxGeometry relative="1" as="geometry"/>
                </mxCell>
                <mxCell id="11" style="edgeStyle=none;html=1;entryX=-0.017;entryY=0.403;entryDx=0;entryDy=0;entryPerimeter=0;" edge="1" parent="1" source="6" target="8">
                    <mxGeometry relative="1" as="geometry"/>
                </mxCell>
                <mxCell id="12" style="edgeStyle=none;html=1;entryX=0.283;entryY=0.898;entryDx=0;entryDy=0;entryPerimeter=0;" edge="1" parent="1" source="7" target="8">
                    <mxGeometry relative="1" as="geometry">
                        <Array as="points">
                            <mxPoint x="550" y="220"/>
                        </Array>
                    </mxGeometry>
                </mxCell>
            </root>
        </mxGraphModel>
    </diagram>
</mxfile>